<svg width="34" height="35" viewBox="0 0 34 35" fill="none" xmlns="http://www.w3.org/2000/svg">
<path d="M13.6565 15.0767H16.3681V9.99243H20.4355C25.1583 9.99243 24.5092 15.3644 22.4979 17.4202C22.4794 17.4392 22.4547 17.4493 22.4282 17.4493C21.1536 17.4494 19.3034 17.4583 17.9711 18.2963C17.8898 18.3475 17.9278 18.4662 18.0239 18.4662H19.7576C26.1976 18.4662 29.5871 29.8272 19.7576 32.1936C9.92806 34.56 2.07922 25.5777 1.79328 19.1441C1.16058 4.90819 13.3175 2.19659 15.0123 2.19659C16.0969 2.03282 18.4018 2.19659 18.4018 2.19659C23.825 2.19661 34.3323 8.63666 32.9765 22.8725C36.3659 7.95878 24.8417 0.162911 16.0291 0.84081C5.86058 1.17976 0.023694 9.62957 0.437485 19.1441C0.776531 26.9399 11.6227 39.1421 23.486 32.702C28.8714 29.7785 31.2486 21.6312 23.6474 17.8668C23.5779 17.8324 23.5668 17.7339 23.6297 17.6885C26.5881 15.5525 28.1241 9.31453 21.4523 9.31453H13.6565V15.0767Z" fill="white"/>
</svg>
