<svg width="93" height="93" viewBox="0 0 93 93" fill="none" xmlns="http://www.w3.org/2000/svg">
<g id="Zag">
<g id="Group 1">
<path id="Vector 3" d="M36.0873 43.9901V57.1679C36.0873 61.9271 32.6711 63.2699 30.3428 63.8991C30.2344 63.9284 30.1645 63.7747 30.253 63.7057C31.7086 62.5699 32.6496 60.9636 32.6496 58.8868V31.9582C32.6496 30.8123 32.0767 29.6664 30.9308 29.6664H29.2119V29.0935H48.6922C52.9272 29.0935 55.6949 26.6479 56.5432 25.824C56.6071 25.7619 56.7135 25.808 56.7135 25.8971V28.5205C56.7135 28.9789 53.8487 30.2394 49.8381 30.2394H36.0873V42.2713H48.0192C48.0745 42.2713 48.1196 42.3164 48.1043 42.3694C47.9325 42.9653 46.307 43.9901 44.6815 43.9901H36.0873Z" fill="white"/>
<path id="Vector 2" d="M42.9627 44.5635H38.3791V60.0331C38.3791 65.617 37.2907 65.7589 35.1139 67.884C35.0501 67.9462 35.0932 68.0516 35.182 68.0448C37.6093 67.8589 42.9627 64.9662 42.9627 58.4933V44.5635Z" fill="white"/>
<path id="Vector 1" d="M38.3798 41.6987H42.9634V33.1044H49.8388C57.8377 33.1044 56.7206 42.2204 53.3053 45.6803C53.2867 45.6992 53.2621 45.7093 53.2356 45.7093C51.0245 45.7094 47.7719 45.7188 45.4996 47.2541C45.42 47.3079 45.4591 47.4281 45.5552 47.4281H48.6929C59.579 47.4281 65.3084 66.6325 48.6929 70.6326C32.0774 74.6326 18.81 59.4493 18.3266 48.574C17.2571 24.5102 37.8069 19.9266 40.6716 19.9266C42.5051 19.6498 46.4011 19.9266 46.4011 19.9266C55.5683 19.9266 73.3296 30.8127 71.0378 54.8765C76.7671 29.6668 57.287 16.4889 42.3905 17.6348C25.2019 18.2078 15.3354 32.4911 16.0348 48.574C16.608 61.7519 34.942 82.3781 54.9954 71.492C64.1246 66.5361 68.1399 52.6993 55.1573 46.3605C55.0876 46.3265 55.0759 46.2283 55.1395 46.1838C60.2043 42.6418 62.9094 31.9585 51.5577 31.9585H38.3798V41.6987Z" fill="white"/>
</g>
</g>
</svg>
